# xmcd
#
# Track frame offsets:
#	150
#	19708
#	34530
#	48168
#	63563
#	80861
#	97625
#	116480
#	131380
#	149135
#	169697
#	180190
#	190262
#	206398
#	221978
#	240816
#
# Disc length: 3408 seconds
#
# Revision: 1
# Processed by: cddbd v1.5.2PL0 Copyright (c) Steve Scherf et al.
# Submitted via: audiograbber 1.83.01
#
DISCID=d20d4e10
DTITLE=Richard - Dobson
DYEAR=2012
DGENRE=Country
TTITLE0=A better Word for Love
TTITLE1=Fisherman's Son
TTITLE2=Sun going down Blues
TTITLE3=Entre ayer y Manana
TTITLE4=Leave the Light on
TTITLE5=Long Time, long Time
TTITLE6=I will fight no more forever
TTITLE7=Footprints
TTITLE8=Thirsty in the Rain
TTITLE9=Song for Richard Mock
TTITLE10=Wehn i get Home i play my Martin
TTITLE11=Less of me
TTITLE12=Everything i need
TTITLE13=The Sky is Falling
TTITLE14=I hear singing
TTITLE15=So have I
EXTD=
EXTT0=
EXTT1=
EXTT2=
EXTT3=
EXTT4=
EXTT5=
EXTT6=
EXTT7=
EXTT8=
EXTT9=
EXTT10=
EXTT11=
EXTT12=
EXTT13=
EXTT14=
EXTT15=
PLAYORDER=
